<?xml version="1.0" encoding="UTF-8" standalone="no"?>
<!-- Created with Inkscape (http://www.inkscape.org/) -->

<svg
   xmlns:dc="http://purl.org/dc/elements/1.1/"
   xmlns:cc="http://creativecommons.org/ns#"
   xmlns:rdf="http://www.w3.org/1999/02/22-rdf-syntax-ns#"
   xmlns:svg="http://www.w3.org/2000/svg"
   xmlns="http://www.w3.org/2000/svg"
   xmlns:sodipodi="http://sodipodi.sourceforge.net/DTD/sodipodi-0.dtd"
   xmlns:inkscape="http://www.inkscape.org/namespaces/inkscape"
   width="270.00269"
   height="91.527611"
   id="svg2"
   version="1.1"
   inkscape:version="0.91pre2 r13516"
   viewBox="0 0 270.00269 91.527612"
   sodipodi:docname="GUM_logo.svg"
   inkscape:export-filename="C:\Uni\Corpora\GUM\site\GUM_logo.png"
   inkscape:export-xdpi="90"
   inkscape:export-ydpi="90">
  <defs
     id="defs4" />
  <sodipodi:namedview
     id="base"
     pagecolor="#ffffff"
     bordercolor="#666666"
     borderopacity="1.0"
     inkscape:pageopacity="0.0"
     inkscape:pageshadow="2"
     inkscape:zoom="0.49497475"
     inkscape:cx="280.71582"
     inkscape:cy="-7.4463792"
     inkscape:document-units="px"
     inkscape:current-layer="layer1"
     showgrid="false"
     inkscape:window-width="2004"
     inkscape:window-height="1096"
     inkscape:window-x="-4"
     inkscape:window-y="-4"
     inkscape:window-maximized="1"
     fit-margin-top="0"
     fit-margin-left="0"
     fit-margin-right="0"
     fit-margin-bottom="0" />
  <metadata
     id="metadata7">
    <rdf:RDF>
      <cc:Work
         rdf:about="">
        <dc:format>image/svg+xml</dc:format>
        <dc:type
           rdf:resource="http://purl.org/dc/dcmitype/StillImage" />
        <dc:title></dc:title>
      </cc:Work>
    </rdf:RDF>
  </metadata>
  <g
     inkscape:label="Layer 1"
     inkscape:groupmode="layer"
     id="layer1"
     transform="translate(-300.1002,-622.54061)">
    <path
       style="fill:none;fill-rule:evenodd;stroke:#000000;stroke-width:1px;stroke-linecap:butt;stroke-linejoin:miter;stroke-opacity:1"
       d="m 305,647.36219 176.42857,-23.57143 15.71429,35 -195.71429,28.57143 z"
       id="path7795"
       inkscape:connector-curvature="0" />
    <path
       style="fill:none;fill-rule:evenodd;stroke:#000000;stroke-width:1px;stroke-linecap:butt;stroke-linejoin:miter;stroke-opacity:1"
       d="m 300.71429,686.64791 6.42857,26.85714 188.57143,-28.57143 0.71428,-26.14286 z"
       id="path7797"
       inkscape:connector-curvature="0"
       sodipodi:nodetypes="ccccc" />
    <path
       style="fill:none;fill-rule:evenodd;stroke:#000000;stroke-width:1px;stroke-linecap:butt;stroke-linejoin:miter;stroke-opacity:1"
       d="m 482.85714,626.64791 31.42857,-3.57143 15,29.28571 -33.57142,2.85715 z"
       id="path7799"
       inkscape:connector-curvature="0" />
    <path
       style="fill:none;fill-rule:evenodd;stroke:#000000;stroke-width:1px;stroke-linecap:butt;stroke-linejoin:miter;stroke-opacity:1"
       d="m 528.57143,653.79076 -0.71429,5 -31.42857,2.85715"
       id="path7803"
       inkscape:connector-curvature="0" />
    <path
       style="fill:none;fill-rule:evenodd;stroke:#000000;stroke-width:1px;stroke-linecap:butt;stroke-linejoin:miter;stroke-opacity:1"
       d="m 496.42857,669.50505 50.71429,-4.28571 -18.57143,-35 -10.71429,0.71428"
       id="path7805"
       inkscape:connector-curvature="0" />
    <path
       style="fill:none;fill-rule:evenodd;stroke:#000000;stroke-width:1px;stroke-linecap:butt;stroke-linejoin:miter;stroke-opacity:1"
       d="m 496.42857,674.50505 50.71429,-4.28571 0,-4.28572"
       id="path7807"
       inkscape:connector-curvature="0" />
    <path
       style="fill:none;fill-rule:evenodd;stroke:#000000;stroke-width:1px;stroke-linecap:butt;stroke-linejoin:miter;stroke-opacity:1"
       d="m 496.42857,679.50505 72.85714,-7.14286 -17.14285,-30 -16.42857,0.71429"
       id="path7809"
       inkscape:connector-curvature="0" />
    <path
       style="fill:none;fill-rule:evenodd;stroke:#000000;stroke-width:1px;stroke-linecap:butt;stroke-linejoin:miter;stroke-opacity:1"
       d="m 496.42857,683.79076 72.14286,-6.42857 0,-4.28571"
       id="path7811"
       inkscape:connector-curvature="0" />
    <path
       style="fill:none;fill-rule:evenodd;stroke:#000000;stroke-width:1px;stroke-linecap:butt;stroke-linejoin:miter;stroke-opacity:1"
       d="m 326.42857,643.79076 25.71429,35"
       id="path7813"
       inkscape:connector-curvature="0" />
    <path
       style="fill:none;fill-rule:evenodd;stroke:#000000;stroke-width:1px;stroke-linecap:butt;stroke-linejoin:miter;stroke-opacity:1"
       d="m 437.85714,629.50505 25,32.14286 0,27.85714"
       id="path7817"
       inkscape:connector-curvature="0" />
    <path
       style="fill:none;fill-rule:evenodd;stroke:#000000;stroke-width:1px;stroke-linecap:butt;stroke-linejoin:miter;stroke-opacity:1"
       d="m 351.42857,680.21934 2.85714,25"
       id="path7819"
       inkscape:connector-curvature="0" />
    <path
       style="fill:#000080"
       d="m 302.59686,683.34469 c 0.1821,-1.32244 0.81393,-8.19014 1.40406,-15.26157 0.59013,-7.07143 1.26133,-14.49444 1.49155,-16.49557 l 0.41858,-3.63842 10.32159,-1.2951 c 10.11688,-1.26941 10.34078,-1.26808 11.28955,0.067 0.53238,0.74915 5.95185,8.11209 12.04328,16.36209 8.98526,12.1693 10.85202,15.09204 9.89208,15.48775 -0.65077,0.26827 -10.66537,1.82454 -22.25466,3.45839 -11.58928,1.63385 -21.94121,3.13921 -23.00427,3.34525 -1.83819,0.35626 -1.91663,0.25684 -1.60176,-2.02982 z"
       id="path7821"
       inkscape:connector-curvature="0" />
    <path
       style="fill:#000080"
       d="m 463.63147,661.98363 c 0,-0.70007 -13.45924,-18.49284 -21.88814,-28.93556 l -2.33445,-2.89219 20.71153,-2.73376 c 11.39134,-1.50357 20.80203,-2.6128 20.91263,-2.46496 0.5569,0.74442 14.75617,32.9851 14.58443,33.11524 -0.11016,0.0835 -6.78958,1.02446 -14.84315,2.09109 -8.05357,1.06663 -15.20535,2.10119 -15.89285,2.29904 -0.6875,0.19784 -1.25,-0.0177 -1.25,-0.4789 z"
       id="path7823"
       inkscape:connector-curvature="0" />
    <path
       style="fill:#0000ff"
       d="m 307.24226,710.03842 c -1.59402,-5.77307 -5.19308,-21.67771 -4.9483,-21.86705 0.58012,-0.44869 47.76073,-7.11741 48.08202,-6.79612 0.36849,0.36849 3.22878,23.72767 2.94279,24.03289 -0.0939,0.1002 -9.62443,1.61737 -21.179,3.3715 -11.55457,1.75414 -21.72886,3.31458 -22.60953,3.46765 -1.31345,0.2283 -1.72466,-0.16869 -2.28798,-2.20887 z"
       id="path7825"
       inkscape:connector-curvature="0" />
    <path
       style="fill:#000080"
       d="m 463.63147,676.63216 0,-12.24515 14.10714,-1.97705 c 7.75893,-1.08738 14.9591,-2.13775 16.00039,-2.33417 l 1.89324,-0.35711 -0.38031,12.03936 c -0.20918,6.62165 -0.47066,12.14532 -0.58108,12.27481 -0.11042,0.1295 -7.13945,1.27248 -15.62007,2.53996 l -15.41931,2.30451 0,-12.24516 z"
       id="path7827"
       inkscape:connector-curvature="0" />
    <path
       style="fill:#000080"
       d="m 308.0581,710.82964 c -0.383,-0.72487 -1.76625,-5.91652 -3.07388,-11.537 -1.88368,-8.0964 -2.18601,-10.3374 -1.45553,-10.78886 0.93349,-0.57693 42.00089,-6.53033 44.87607,-6.50554 0.86203,0.007 1.7214,0.57228 1.92224,1.26345 0.94007,3.23505 2.71532,21.0486 2.14986,21.57245 -0.34711,0.32157 -9.30968,1.91651 -19.91682,3.54432 -10.60715,1.6278 -20.30269,3.14178 -21.54565,3.36439 -1.73601,0.31092 -2.42136,0.0992 -2.95629,-0.91321 z"
       id="path7829"
       inkscape:connector-curvature="0" />
    <path
       style="fill:#0000bb;fill-opacity:1"
       d="m 302.77432,684.94378 c 0,-1.39882 2.9304,-32.54946 3.23496,-34.38818 0.36466,-2.20151 0.47051,-2.25585 5.88961,-3.02297 3.03506,-0.42964 7.60758,-0.96779 10.16115,-1.19588 l 4.64285,-0.41472 5,6.91019 c 13.38583,18.49972 17.47998,24.29077 17.48956,24.73848 0.0177,0.82565 -1.85713,1.17477 -22.13241,4.12143 -10.80357,1.57011 -20.6875,3.03818 -21.96429,3.26238 -1.27678,0.22419 -2.32143,0.21936 -2.32143,-0.0107 z"
       id="path8631"
       inkscape:connector-curvature="0" />
    <path
       style="fill:#0000bb;fill-opacity:1"
       d="m 457.19175,652.46508 c -3.97879,-5.31722 -9.45748,-12.44482 -12.17487,-15.8391 l -4.94071,-6.17142 2.59908,-0.41236 c 1.42949,-0.2268 10.4612,-1.41066 20.07047,-2.6308 16.34377,-2.07526 17.52868,-2.1401 18.35892,-1.00467 0.90575,1.23868 12.53764,27.34881 13.35838,29.98558 0.43134,1.38575 -0.24406,1.54995 -14.79256,3.59625 l -15.24454,2.1442 -7.23417,-9.66768 z"
       id="path8633"
       inkscape:connector-curvature="0" />
    <path
       style="fill:#808080;fill-opacity:1"
       d="m 353.89468,694.11451 c -0.68436,-6.22441 -1.29677,-11.78022 -1.3609,-12.34625 -0.0937,-0.82716 10.18691,-2.53466 52.3834,-8.70027 28.875,-4.21912 53.54464,-7.83401 54.82143,-8.03309 l 2.32143,-0.36197 -0.002,12.27652 -0.002,12.27652 -51.60499,7.76385 c -28.38274,4.27011 -52.43901,7.91638 -53.45838,8.10282 l -1.85339,0.33898 -1.24429,-11.31711 z"
       id="path8635"
       inkscape:connector-curvature="0" />
    <path
       style="fill:#cccccc;fill-opacity:1"
       d="m 347.66229,671.19026 c -2.81802,-3.83036 -8.12421,-11.0252 -11.79153,-15.98855 -3.66733,-4.96334 -6.66787,-9.30942 -6.66787,-9.65796 0,-0.49454 100.42978,-14.39307 106.89848,-14.79373 1.20474,-0.0746 4.20756,3.32398 13.75,15.56228 6.71477,8.61176 12.20867,15.84699 12.20867,16.07828 0,0.34116 -106.94643,15.86775 -108.74418,15.78759 -0.29144,-0.013 -2.83555,-3.15755 -5.65357,-6.98791 z"
       id="path8637"
       inkscape:connector-curvature="0" />
    <text
       xml:space="preserve"
       style="font-style:normal;font-weight:normal;font-size:40px;line-height:125.99999905%;font-family:sans-serif;letter-spacing:0px;word-spacing:0px;fill:#000000;fill-opacity:1;stroke:none;stroke-width:1px;stroke-linecap:butt;stroke-linejoin:miter;stroke-opacity:1"
       x="238.60689"
       y="726.16571"
       id="text10635"
       sodipodi:linespacing="126%"
       transform="matrix(0.98480775,-0.17364818,0.17364818,0.98480775,0,0)"><tspan
         sodipodi:role="line"
         id="tspan10637"
         x="238.60689"
         y="726.16571"
         style="font-style:normal;font-variant:normal;font-weight:bold;font-stretch:normal;font-size:35px;line-height:125.99999905%;font-family:'Comic Sans MS';-inkscape-font-specification:'Comic Sans MS Bold'">GUM</tspan></text>
    <flowRoot
       xml:space="preserve"
       id="flowRoot10639"
       style="font-style:normal;font-weight:normal;font-size:40px;line-height:125%;font-family:sans-serif;letter-spacing:0px;word-spacing:0px;fill:#000000;fill-opacity:1;stroke:none;stroke-width:1px;stroke-linecap:butt;stroke-linejoin:miter;stroke-opacity:1"><flowRegion
         id="flowRegion10641"><rect
           id="rect10643"
           width="48.57143"
           height="62.142857"
           x="379.28571"
           y="663.07648" /></flowRegion><flowPara
         id="flowPara10645" /></flowRoot>    <path
       style="opacity:0.2055749;fill:#000000;fill-opacity:1"
       d="m 495.54506,652.83126 c -0.32113,-0.80434 -2.98817,-6.766 -5.92676,-13.24814 -2.93859,-6.48215 -5.23168,-11.90253 -5.09575,-12.0453 0.28314,-0.29741 29.11376,-3.71805 29.27113,-3.47292 1.28731,2.00527 13.92921,27.16489 13.74303,27.35107 -0.14593,0.14593 -7.27238,0.85311 -15.83656,1.57152 l -15.57123,1.3062 -0.58386,-1.46243 z"
       id="path10647"
       inkscape:connector-curvature="0" />
    <path
       style="opacity:0.2055749;fill:#000000;fill-opacity:1"
       d="m 495.59234,652.48562 c -0.85698,-1.20352 -1.35549,-2.18822 -1.10779,-2.18822 0.2477,0 -0.32409,-1.52678 -1.27064,-3.39285 -2.01138,-3.96534 -5.03291,-10.37794 -5.13256,-10.89286 -0.33416,-1.72661 -2.84421,-7.14286 -3.31022,-7.14286 -0.32716,0 -0.44065,-0.40178 -0.25221,-0.89286 0.18844,-0.49107 1.38371,-0.92638 2.65616,-0.96735 1.27244,-0.041 3.92067,-0.29029 5.88496,-0.55402 1.96428,-0.26373 4.05357,-0.50725 4.64285,-0.54114 0.58929,-0.0339 3.48215,-0.37951 6.42858,-0.76804 6.3567,-0.83822 9.55317,-0.77762 9.8852,0.18741 0.13329,0.3874 0.68854,1.15056 1.23388,1.6959 1.68198,1.68198 11.79908,23.49337 11.18303,24.10942 -0.31912,0.31912 -2.65515,0.73261 -5.19117,0.91886 -2.53602,0.18625 -6.70023,0.51517 -9.2538,0.73093 -2.55357,0.21575 -6.41072,0.52594 -8.57143,0.68931 -2.16071,0.16337 -4.45465,0.49943 -5.09763,0.74681 -0.79593,0.30622 -1.66638,-0.24863 -2.72721,-1.73844 z"
       id="path10649"
       inkscape:connector-curvature="0" />
    <path
       style="opacity:0.2055749;fill:#000000;fill-opacity:1"
       d="m 496.68125,653.06609 c -1.00952,-0.79409 -1.8355,-1.78206 -1.8355,-2.1955 0,-1.46941 -3.77885,-9.14462 -4.50231,-9.14462 -0.40468,0 -0.54494,-0.19084 -0.31168,-0.42409 0.23325,-0.23326 -0.70023,-3.04576 -2.0744,-6.25 -1.37417,-3.20425 -2.67083,-6.22769 -2.88147,-6.71876 -0.26529,-0.61848 0.39581,-0.89286 2.15129,-0.89286 1.39384,0 2.70627,-0.27832 2.91651,-0.61849 0.21024,-0.34017 1.18813,-0.46444 2.1731,-0.27615 0.98497,0.18828 2.35871,0.11092 3.05276,-0.17192 0.69406,-0.28284 2.38692,-0.59546 3.76192,-0.6947 1.375,-0.0992 4.97211,-0.39333 7.99358,-0.65352 5.03149,-0.43329 5.61387,-0.34396 6.92368,1.06195 2.70582,2.90436 12.76038,23.91329 11.87045,24.80321 -0.76807,0.76808 -13.95228,2.18931 -20.41586,2.20079 -1.79905,0.003 -4.107,0.32366 -5.12878,0.71214 -1.49188,0.56721 -2.2193,0.42196 -3.69329,-0.73748 z"
       id="path10651"
       inkscape:connector-curvature="0" />
    <path
       style="opacity:1;fill:#ececec;fill-opacity:1"
       d="m 496.90342,653.00784 c -0.63615,-0.5086 -2.21052,-3.25508 -3.4986,-6.10329 -1.28809,-2.84822 -2.63479,-5.17858 -2.99268,-5.17858 -0.35788,0 -0.45204,-0.32142 -0.20925,-0.71428 0.2428,-0.39286 0.0821,-0.71429 -0.35714,-0.71429 -0.43923,0 -0.62346,-0.28336 -0.40941,-0.6297 0.21404,-0.34634 -0.63035,-3.07226 -1.87645,-6.0576 -1.24609,-2.98534 -2.12546,-5.56228 -1.95416,-5.72654 0.56551,-0.54227 19.09635,-2.58616 23.44738,-2.58616 3.90972,0 4.39238,0.17638 5.76749,2.10753 1.88701,2.65007 9.79455,19.03899 10.39837,21.55134 0.56736,2.36066 0.16794,2.47083 -12.51608,3.45241 -5.30357,0.41043 -10.76785,0.92121 -12.14285,1.13506 -1.52597,0.23733 -2.95064,0.0285 -3.65662,-0.5359 z"
       id="path10653"
       inkscape:connector-curvature="0" />
    <path
       style="opacity:1;fill:#ececec;fill-opacity:1"
       d="m 496.98861,665.55568 0,-3.01262 3.75,-0.42443 c 2.0625,-0.23344 9.04167,-0.91086 15.50926,-1.50538 7.36599,-0.6771 11.9652,-1.40502 12.31049,-1.94839 0.30318,-0.4771 0.55615,-1.9121 0.56217,-3.18889 0.006,-1.27678 0.33438,-2.32142 0.72969,-2.32142 0.39532,0 -1.68496,-4.79943 -4.62284,-10.66539 l -5.34159,-10.66539 3.94122,-0.49243 c 2.16767,-0.27083 4.04917,-0.37319 4.18113,-0.22746 0.7097,0.78379 17.54359,33.01135 17.34633,33.20861 -0.12896,0.12897 -11.06404,1.13928 -24.30017,2.24514 l -24.06569,2.01066 0,-3.01261 z"
       id="path10655"
       inkscape:connector-curvature="0" />
    <path
       style="opacity:1;fill:#ececec;fill-opacity:1"
       d="m 496.98861,676.92233 c 0,-0.89371 0.40178,-1.63322 0.89286,-1.64336 0.49107,-0.0101 3.97784,-0.31866 7.74837,-0.68561 3.77054,-0.36696 14.68686,-1.33749 24.25851,-2.15675 9.57164,-0.81925 17.47839,-1.56495 17.57055,-1.65711 0.0922,-0.0922 0.24055,-1.4437 0.32976,-3.00341 0.13305,-2.32624 -0.82612,-4.71499 -5.33771,-13.29315 l -5.49992,-10.45732 7.20084,-0.51539 c 3.96046,-0.28347 7.30447,-0.3991 7.43113,-0.25697 0.12667,0.14214 3.8063,6.52629 8.17698,14.187 6.41281,11.24008 7.71276,13.9783 6.73479,14.18621 -0.66654,0.14169 -16.5781,1.75684 -35.35902,3.5892 l -34.14714,3.33158 0,-1.62492 z"
       id="path10657"
       inkscape:connector-curvature="0" />
    <path
       style="opacity:1;fill:#b3b3b3;fill-opacity:1"
       d="m 496.98861,660.1477 c 0,-0.31052 0.33274,-0.56458 0.73942,-0.56458 0.4912,0 0.47177,-0.5001 -0.0579,-1.48975 -0.4385,-0.81936 -0.6634,-1.62363 -0.49976,-1.78727 0.16364,-0.16364 5.57361,-0.77444 12.02216,-1.35734 6.44855,-0.5829 13.25142,-1.23612 15.11749,-1.45161 3.17397,-0.36653 3.39215,-0.28654 3.38192,1.23994 -0.006,0.89746 -0.24709,2.00226 -0.53572,2.45512 -0.60456,0.94855 -30.16763,3.84482 -30.16763,2.95549 z"
       id="path10659"
       inkscape:connector-curvature="0" />
    <path
       style="opacity:1;fill:#b3b3b3;fill-opacity:1"
       d=""
       id="path10661"
       inkscape:connector-curvature="0" />
    <path
       style="opacity:1;fill:#b3b3b3;fill-opacity:1"
       d=""
       id="path10663"
       inkscape:connector-curvature="0" />
    <path
       style="opacity:1;fill:#b3b3b3;fill-opacity:1"
       d="m 496.98861,672.01322 c 0,-1.84109 -0.46498,-1.76843 24.64286,-3.85078 9.42857,-0.78197 18.83035,-1.60892 20.89285,-1.83766 3.65959,-0.40586 3.75,-0.37159 3.75,1.42123 0,1.41834 -0.36634,1.84528 -1.60714,1.87295 -0.88393,0.0197 -11.97321,0.91551 -24.64286,1.99066 l -23.03571,1.95482 0,-1.55122 z"
       id="path10665"
       inkscape:connector-curvature="0" />
    <path
       style="opacity:1;fill:#b3b3b3;fill-opacity:1"
       d=""
       id="path10667"
       inkscape:connector-curvature="0" />
    <path
       style="opacity:1;fill:#b3b3b3;fill-opacity:1"
       d="m 496.28526,682.57392 c 0.0359,-1.61072 1.81167,-2.30611 7.51631,-2.94337 3.52073,-0.39331 18.13347,-1.84192 32.47275,-3.21914 14.33929,-1.37723 27.27679,-2.67723 28.75,-2.8889 2.48646,-0.35724 2.67857,-0.25616 2.67857,1.40931 0,1.01982 -0.41144,1.79415 -0.95332,1.79415 -1.51672,0 -65.58191,5.65242 -68.15382,6.01316 -1.27678,0.17908 -2.31651,0.10474 -2.31049,-0.16521 z"
       id="path10669"
       inkscape:connector-curvature="0" />
    <path
       style="opacity:1;fill:#ff0000;fill-opacity:1"
       d="m 302.8113,684.10416 c 0.16507,-5.83255 3.4497,-34.72201 4.01166,-35.28397 0.39364,-0.39364 4.95832,-1.24237 10.14373,-1.88608 9.19103,-1.14095 9.45337,-1.13583 10.43605,0.2036 10.71002,14.59821 21.77593,30.0546 21.7865,30.43048 0.0202,0.71663 -5.50509,1.71296 -24.98635,4.50563 -9.625,1.37975 -18.38393,2.69505 -19.46428,2.92287 -1.58531,0.3343 -1.95715,0.16211 -1.92731,-0.89253 z"
       id="path8619"
       inkscape:connector-curvature="0" />
    <path
       style="opacity:1;fill:#d40000;fill-opacity:1"
       d="m 457.71153,653.04131 c -3.64872,-4.84844 -9.01148,-11.81503 -11.91725,-15.48133 -2.90576,-3.66629 -5.14039,-6.80881 -4.96584,-6.98337 0.5535,-0.55349 32.75114,-4.56492 36.64025,-4.56492 l 3.72556,0 6.53254,14.7683 c 3.59289,8.12257 6.43521,15.27366 6.31626,15.89131 -0.16664,0.8653 -2.50884,1.47579 -10.20678,2.66038 -5.49479,0.84556 -12.12806,1.75958 -14.74062,2.03117 l -4.75009,0.49379 -6.63403,-8.81533 z"
       id="path8621"
       inkscape:connector-curvature="0" />
    <path
       style="opacity:1;fill:#d40000;fill-opacity:1"
       d="m 307.49757,708.20244 c -2.03012,-6.83618 -4.246,-17.68563 -3.83228,-18.76377 0.22783,-0.59371 1.64735,-1.26113 3.15449,-1.48315 39.86474,-5.87262 42.69435,-6.16729 43.32944,-4.51227 0.72893,1.89956 2.01481,15.07414 1.78444,18.28273 l -0.23077,3.21428 -17.85714,2.96406 c -9.82143,1.63023 -19.52601,3.17782 -21.56574,3.43908 l -3.7086,0.47503 -1.07384,-3.61599 z"
       id="path8623"
       inkscape:connector-curvature="0" />
    <path
       style="opacity:1;fill:#ff0000;fill-opacity:1"
       d="m 464.20289,676.36883 c 0,-6.48214 0.1226,-11.78571 0.27245,-11.78571 0.14984,0 6.93796,-0.96429 15.0847,-2.14286 8.14673,-1.17857 15.01521,-2.14344 15.26326,-2.14414 0.60288,-0.002 -0.12773,22.60487 -0.75066,23.22723 -0.47161,0.47117 -26.09303,4.61128 -28.61975,4.6246 -1.14023,0.006 -1.25,-1.02831 -1.25,-11.77912 z"
       id="path8625"
       inkscape:connector-curvature="0" />
    <path
       style="opacity:1;fill:#ff0000;fill-opacity:1"
       d="m 452.9256,646.34831 c -7.21653,-9.52773 -11.28502,-15.47406 -10.71428,-15.65953 2.31613,-0.75266 21.06918,-3.118 34.13443,-4.30541 l 4.64286,-0.42195 5.86547,13.54166 c 3.22601,7.44792 6.07214,14.36511 6.32474,15.37155 0.61244,2.44018 -0.47542,2.81052 -13.70722,4.66633 -5.84422,0.81967 -11.59014,1.64275 -12.76871,1.82908 -2.05982,0.32565 -2.59369,-0.25644 -13.77729,-15.02173 z"
       id="path8627"
       inkscape:connector-curvature="0" />
    <path
       style="opacity:1;fill:#d40000;fill-opacity:1"
       d="m 464.65712,684.12628 c -0.576,-4.20243 -0.57832,-9.57494 -0.006,-15.04599 l 0.44775,-4.28382 13.30225,-1.8931 c 7.31624,-1.0412 14.06662,-1.89278 15.00086,-1.89239 l 1.6986,7.1e-4 -0.52344,10.89286 c -0.28923,6.01878 -0.84878,11.09576 -1.25052,11.34631 -0.96736,0.60331 -23.25146,4.1894 -26.03311,4.1894 -2.05395,0 -2.20827,-0.19401 -2.63591,-3.31398 z"
       id="path8629"
       inkscape:connector-curvature="0" />
    <path
       style="opacity:1;fill:#ffffff;fill-opacity:1"
       d="m 350.71058,674.66603 c -1.41851,-1.74102 -3.14162,-3.75763 -3.82912,-4.48135 -0.6875,-0.72371 -1.25,-1.6213 -1.25,-1.99464 0,-0.37334 -0.45931,-0.93584 -1.02069,-1.25 -0.56138,-0.31416 -0.96584,-0.73192 -0.8988,-0.92835 0.20092,-0.58874 -4.70302,-7.14286 -5.34445,-7.14286 -0.32626,0 -0.5932,-0.46617 -0.5932,-1.03593 0,-0.56977 -0.40231,-1.29298 -0.89402,-1.60715 -0.49171,-0.31416 -1.33387,-1.42575 -1.87147,-2.47019 -0.53759,-1.04444 -1.82278,-2.8383 -2.85598,-3.98636 -3.15838,-3.50951 -2.84145,-4.26122 2.03523,-4.82722 2.36529,-0.27452 4.30345,-0.70864 4.30702,-0.96471 0.004,-0.25607 1.99171,-0.53441 4.41809,-0.61853 2.42638,-0.0841 4.91452,-0.35438 5.52922,-0.60058 0.61469,-0.24619 2.99974,-0.58599 5.30011,-0.7551 2.30037,-0.16911 4.74918,-0.61075 5.4418,-0.98143 0.69262,-0.37068 1.42219,-0.51108 1.62127,-0.312 0.19908,0.19907 2.41098,0.0133 4.91535,-0.41285 2.50436,-0.42615 6.16052,-0.93514 8.12481,-1.13109 1.96429,-0.19596 5.5,-0.6781 7.85714,-1.07143 2.35715,-0.39333 5.89286,-0.86558 7.85715,-1.04943 1.96428,-0.18386 4.375,-0.51958 5.35714,-0.74606 0.98214,-0.22647 2.91071,-0.54461 4.28571,-0.70698 1.375,-0.16237 3.46429,-0.4403 4.64286,-0.61762 1.17857,-0.17733 4.22791,-0.52665 6.77631,-0.77627 2.5484,-0.24963 4.83785,-0.58018 5.08766,-0.73457 0.24981,-0.1544 2.66052,-0.47582 5.35714,-0.71429 2.69662,-0.23847 5.10009,-0.55542 5.34104,-0.70433 0.24096,-0.14892 2.6559,-0.45443 5.36655,-0.6789 l 4.92844,-0.40814 4.10715,4.41895 c 2.25892,2.43042 4.10714,4.62976 4.10714,4.88742 0,0.25767 1.125,1.6967 2.5,3.19785 1.375,1.50115 2.50153,2.93003 2.50341,3.17529 0.002,0.24527 1.12688,1.66918 2.5,3.16426 1.37312,1.49508 2.49659,2.95905 2.49659,3.25327 0,0.29423 1.08007,1.71412 2.40016,3.15533 1.3201,1.4412 2.27661,2.74392 2.1256,2.89494 -0.15101,0.15101 0.21534,0.68116 0.81412,1.1781 1.7159,1.42407 1.31085,1.93823 -1.94702,2.4715 -2.46495,0.40347 -74.71953,11.09233 -82.32143,12.17807 -1.17857,0.16833 -3.26786,0.4845 -4.64286,0.70259 -1.375,0.21809 -3.78571,0.55983 -5.35714,0.75942 -13.59822,1.7271 -12.34711,1.86866 -15.27803,-1.72863 z m 21.54755,-1.55443 c 5.37607,-1.49295 8.94157,-6.17412 10.12717,-13.29605 0.6863,-4.12264 -0.76514,-4.88166 -6.49455,-3.39631 -6.96665,1.80611 -9.18786,3.17538 -9.18786,5.66388 0,2.76572 2.01544,3.14064 5.98814,1.11392 3.54549,-1.80877 3.60947,-1.80947 3.14518,-0.034 -0.61579,2.3548 -4.32285,4.99154 -7.01773,4.99154 -2.23162,0 -2.47923,-0.22862 -3.21764,-2.97088 -0.93447,-3.47037 -0.45039,-6.89693 1.57496,-11.14837 1.79386,-3.7655 3.23702,-4.62002 6.31281,-3.7379 4.88824,1.40193 7.12933,-2.75463 2.52294,-4.6793 -5.97249,-2.49547 -10.54652,-0.53471 -13.69084,5.86888 -1.77469,3.61424 -2.04639,4.99009 -2.04639,10.36274 0,5.17184 0.24735,6.52868 1.49743,8.21428 2.68411,3.61923 5.49074,4.4349 10.48638,3.0476 z m 28.65928,-6.41893 c 3.7707,-3.31071 5.01326,-7.88331 4.48748,-16.51372 -0.46123,-7.57066 -1.22888,-9.88155 -3.28253,-9.88155 -2.7147,0 -3.15302,1.67082 -2.29563,8.75077 1.25128,10.33252 -0.54485,15.10616 -5.52227,14.67674 -3.27713,-0.28273 -4.78924,-3.21018 -6.21662,-12.03545 -0.5927,-3.66458 -1.42721,-7.08408 -1.85447,-7.59889 -1.09588,-1.32046 -3.41675,-1.16309 -3.96627,0.26892 -0.73167,1.90673 1.10322,14.39306 2.61848,17.81856 2.24797,5.0819 4.50754,6.69078 9.39676,6.69078 3.61399,0 4.48008,-0.28406 6.63507,-2.17616 z m 14.30589,-1.80343 c 0.84439,-0.84438 1.12732,-2.65813 1.14211,-7.32143 l 0.0196,-6.19898 2.74048,5.77921 c 2.81901,5.94483 4.21232,7.23401 6.49689,6.01134 1.3008,-0.69617 2.19246,-3.70102 3.25869,-10.98171 l 0.50917,-3.47687 2.22773,5.3425 c 2.65067,6.35677 3.65342,7.68268 5.81021,7.68268 2.69572,0 2.70949,-2.05258 0.0549,-8.17409 -1.37254,-3.16497 -3.55599,-8.48663 -4.85213,-11.82591 -1.91761,-4.94038 -2.66335,-6.11491 -4.00309,-6.30484 -2.6948,-0.38201 -3.49786,0.98683 -4.02005,6.85232 -0.27048,3.03817 -0.7271,6.64894 -1.0147,8.02394 -0.51594,2.46666 -0.5591,2.40951 -3.23678,-4.28571 -1.49263,-3.73214 -3.05787,-7.20301 -3.47829,-7.71304 -1.13313,-1.3746 -3.59305,-0.73838 -4.54333,1.17506 -1.26326,2.54363 -2.0965,24.13205 -0.98319,25.47351 1.13776,1.37091 2.46274,1.35107 3.87178,-0.058 z"
       id="path8632"
       inkscape:connector-curvature="0" />
    <path
       style="opacity:1;fill:#e6e6e6;fill-opacity:1"
       d="m 355.28463,703.99527 c -0.2021,-0.52666 -0.36745,-2.21699 -0.36745,-3.75629 0,-1.53929 -0.24339,-2.79872 -0.54086,-2.79872 -0.29748,0 -0.42582,-1.44643 -0.28522,-3.21428 0.1406,-1.76786 -0.0201,-3.21429 -0.35714,-3.21429 -0.33704,0 -0.49775,-1.44643 -0.35715,-3.21429 0.14721,-1.85095 -0.0495,-3.21428 -0.46369,-3.21428 -1.01465,0 -0.19741,-2.68181 0.9516,-3.12273 0.52229,-0.20042 4.34776,-0.91809 8.50104,-1.59482 4.15328,-0.67673 7.55142,-1.51823 7.55142,-1.87002 0,-0.35178 0.33372,-0.43334 0.74161,-0.18126 0.89367,0.55232 13.5441,-1.09213 13.5441,-1.76061 0,-0.25818 1.125,-0.33808 2.5,-0.17756 1.375,0.16053 2.5,-1.9e-4 2.5,-0.35714 0,-0.35695 1.125,-0.51767 2.5,-0.35714 1.40793,0.16436 2.5,-0.0251 2.5,-0.4337 0,-0.39906 0.63806,-0.55871 1.4179,-0.35478 0.77984,0.20394 1.9852,0.12282 2.67857,-0.18027 0.69337,-0.30308 1.55613,-0.4819 1.91723,-0.39738 0.90893,0.21276 21.23707,-2.73897 22.55773,-3.27546 0.58929,-0.23939 1.78926,-0.36516 2.66661,-0.2795 0.87734,0.0857 2.00215,-0.0958 2.49957,-0.40319 0.49741,-0.30742 1.75664,-0.46955 2.79827,-0.36029 1.04164,0.10926 2.09677,-0.12962 2.34474,-0.53084 0.24796,-0.40122 0.86421,-0.57087 1.36944,-0.377 0.50522,0.19388 6.29169,-0.46302 12.8588,-1.45976 6.56712,-0.99675 12.57204,-1.81227 13.34425,-1.81227 1.33872,0 1.40404,0.54437 1.40404,11.70241 0,11.53202 -0.0234,11.70868 -1.60715,12.1331 -0.88393,0.23689 -2.49107,0.43509 -3.57143,0.44045 -1.08035,0.005 -1.96428,0.30109 -1.96428,0.65717 0,0.35608 -0.63806,0.48056 -1.4179,0.27663 -0.77984,-0.20393 -1.9852,-0.12771 -2.67857,0.16938 -0.69337,0.29709 -2.1446,0.46981 -3.22496,0.38382 -1.08036,-0.086 -1.96429,0.12477 -1.96429,0.46835 0,0.34358 -1.125,0.49336 -2.5,0.33283 -1.375,-0.16052 -2.5027,-0.0156 -2.50599,0.322 -0.004,0.33763 -2.01223,0.69985 -4.46428,0.80494 -2.45207,0.1051 -4.55407,0.47276 -4.67112,0.81703 -0.11705,0.34428 -0.83546,0.46313 -1.59646,0.26412 -0.76101,-0.19901 -1.95096,-0.11876 -2.64433,0.17833 -0.69337,0.2971 -2.1446,0.46982 -3.22496,0.38383 -1.08036,-0.086 -1.96428,0.12477 -1.96428,0.46835 0,0.34358 -1.125,0.49335 -2.5,0.33283 -1.375,-0.16052 -2.50293,-0.0156 -2.5065,0.322 -0.004,0.33762 -2.009,0.68372 -4.45651,0.7691 -2.4475,0.0854 -4.53894,0.42202 -4.64763,0.74811 -0.1087,0.32608 -1.31756,0.46213 -2.68635,0.30233 -1.3688,-0.1598 -2.48873,0.0104 -2.48873,0.37818 0,0.3678 -0.96428,0.5272 -2.14286,0.35422 -1.17857,-0.17298 -2.14285,-0.0211 -2.14285,0.33742 0,0.35856 -1.125,0.52059 -2.5,0.36007 -1.375,-0.16052 -2.50293,-0.0156 -2.5065,0.322 -0.004,0.33762 -2.009,0.68372 -4.4565,0.76909 -2.44751,0.0854 -4.53895,0.42203 -4.64764,0.74812 -0.1087,0.32608 -1.31755,0.46213 -2.68635,0.30233 -1.3688,-0.1598 -2.49165,-0.0143 -2.49522,0.32332 -0.004,0.33762 -1.9862,0.68236 -4.40585,0.76608 -2.41964,0.0837 -4.58636,0.40515 -4.81493,0.71428 -0.22857,0.30914 -2.33065,0.65127 -4.67129,0.76029 -2.34063,0.10902 -4.42992,0.43044 -4.64285,0.71428 -0.68216,0.9093 -4.99536,0.56523 -5.37685,-0.42892 z"
       id="path8634"
       inkscape:connector-curvature="0" />
  </g>
</svg>
